{"title":"Green Lantern Emerald Knights 2011 Custom NTSC DVD-R DTRG - SAFC","uid":6453534,"size":1807548462,"categoryP":"video","categoryS":"movies_dvdr","magnet":"?xt=urn:btih:a3850ee18a0d45c3429cd3325d0a77047dea1c36&amp;dn=Green+Lantern+Emerald+Knights+2011+Custom+NTSC+DVD-R+DTRG+-+SAFC&amp;tr=udp%3A%2F%2Ftracker.openbittorrent.com%3A80&amp;tr=udp%3A%2F%2Fopen.demonii.com%3A1337&amp;tr=udp%3A%2F%2Ftracker.coppersurfer.tk%3A6969&amp;tr=udp%3A%2F%2Fexodus.desync.com%3A6969","seeders":0,"leechers":1,"uploader":"SAFCukO09","files":2,"time":1307517979,"description":"Format : MPEG-PS\nFile size : 1.66 GiB\nDuration : 1h 23mn\nOverall bit rate : 2 845 Kbps\n\nVideo\nID : 224 (0xE0)\nFormat : MPEG Video\nFormat version : Version 2\nFormat profile : Main@Main\nFormat settings, BVOP : Yes\nFormat settings, Matrix : Default\nFormat settings, GOP : M=3, N=15\nDuration : 1h 23mn\nBit rate mode : Variable\nBit rate : 2 596 Kbps\nNominal bit rate : 9 008 Kbps\nWidth : 720 pixels\nHeight : 480 pixels\nDisplay aspect ratio : 16:9\nFrame rate : 29.970 fps\nStandard : NTSC\nColor space : YUV\nChroma subsampling : 4:2:0\nBit depth : 8 bits\nScan type : Progressive\nCompression mode : Lossy\nBits/(Pixel*Frame) : 0.251\nStream size : 1.52 GiB (91%)\n\nAudio\nID : 189 (0xBD)-128 (0x80)\nFormat : AC-3\nFormat/Info : Audio Coding 3\nMode extension : CM (complete main)\nMuxing mode : DVD-Video\nDuration : 1h 23mn\nBit rate mode : Constant\nBit rate : 192 Kbps\nChannel(s) : 2 channels\nChannel positions : Front: L R\nSampling rate : 48.0 KHz\nBit depth : 16 bits\nCompression mode : Lossy\nStream size : 115 MiB (7%)\n\n &lt;a href=&quot;\nhttp://www.imdb.com/title/tt1683043/&quot; rel=&quot;nofollow&quot; target=&quot;_NEW&quot;&gt;\nhttp://www.imdb.com/title/tt1683043/&lt;/a&gt;\n\n\n\n\n\n\n\n\n\nUsers: 7.2/10 (40 votes) write review | Critics: 5 reviews\n\nAs the home planet of the Green Lantern Corps faces a battle with an ancient enemy, Hal Jordan prepares new recruit Arisia for the coming conflict by relating stories of the first Green Lantern and several of Hal's comrades.\nDirectors:\nChris Berkeley, Lauren Montgomery, and 1 more credit Ã‚Â»\nWriters:\nAlan Burnett, Geoff Johns, and 6 more credits Ã‚Â»\nStars:\nNathan Fillion, Jason Isaacs and Elisabeth Moss\n\n\n\n\n\n\n\n\n\n\n\n\n\n\nSource Used ......... Green Lantern Emrald Knights 2011 DVDRIP MKV-HMV.............. Thanks\n\n\nJust a straightforward dvd-r ready to mount or burn .................\n\n\nGreetz to IMAGiNE,Flawl3ss,DiLLoN,BDK,NOiR,TOXiC,THC,Ez,Rx,Boobyblue,TaRiQ786,LKRG,EP1C","torrent":{"xt":"urn:btih:a3850ee18a0d45c3429cd3325d0a77047dea1c36","amp;dn":"Green+Lantern+Emerald+Knights+2011+Custom+NTSC+DVD-R+DTRG+-+SAFC","amp;tr":["udp%3A%2F%2Ftracker.openbittorrent.com%3A80","udp%3A%2F%2Fopen.demonii.com%3A1337","udp%3A%2F%2Ftracker.coppersurfer.tk%3A6969","udp%3A%2F%2Fexodus.desync.com%3A6969"],"infoHash":"a3850ee18a0d45c3429cd3325d0a77047dea1c36","infoHashBuffer":{"type":"Buffer","data":[163,133,14,225,138,13,69,195,66,156,211,50,93,10,119,4,125,234,28,54]},"announce":[],"urlList":[]}}